<svg width="48" height="48" viewBox="0 0 48 48" fill="none" xmlns="http://www.w3.org/2000/svg">
<circle cx="24" cy="24" r="24" fill="url(#paint0_linear_1731_31)"/>
<path d="M37.625 20.125C37.625 15.9979 37.625 13.9417 36.3417 12.6583C35.0583 11.375 32.9875 11.375 28.875 11.375L20.125 11.375C15.9979 11.375 13.9417 11.375 12.6583 12.6583C11.375 13.9417 11.375 16.0125 11.375 20.125" stroke="white" stroke-width="2" stroke-linecap="round" stroke-linejoin="round"/>
<path d="M25.5938 37.625C25.5938 38.2229 25.0979 38.7188 24.5 38.7188C23.9021 38.7188 23.4063 38.2229 23.4063 37.625H25.5938ZM24.5 18.6667L23.6979 17.9375C23.9021 17.7042 24.1938 17.5729 24.5 17.5729C24.8063 17.5729 25.0979 17.7042 25.3021 17.9229L24.5 18.6667ZM19.4688 25.7833C19.0604 26.2208 18.375 26.2646 17.9229 25.8563C17.4854 25.4479 17.4563 24.7479 17.8646 24.3104L19.4688 25.7833V25.7833ZM31.1354 24.3104C31.5438 24.7479 31.5146 25.4479 31.0771 25.8563C30.625 26.2646 29.9396 26.2354 29.5313 25.7833L31.1354 24.3104ZM23.4063 37.625L23.4063 18.6667L25.5938 18.6667L25.5938 37.625H23.4063ZM25.3021 19.3958L19.4688 25.7833L17.8646 24.3104L23.6979 17.9229L25.3021 19.4104L25.3021 19.3958ZM25.3021 17.9375L31.1354 24.3104L29.5313 25.7833L23.6979 19.4104L25.3021 17.9229V17.9375Z" fill="white"/>
<defs>
<linearGradient id="paint0_linear_1731_31" x1="48" y1="0" x2="0" y2="48" gradientUnits="userSpaceOnUse">
<stop offset="0.09375" stop-color="#D13E6F"/>
<stop offset="0.447917" stop-color="#872847"/>
<stop offset="1" stop-color="#3F0D1B"/>
</linearGradient>
</defs>
</svg>
